control3min_grf.mot
version=1
nRows=12
nColumns 19
inDegrees=yes
endheader
time	1_ground_force_vx	1_ground_force_vy	1_ground_force_vz	1_ground_force_px	1_ground_force_py	1_ground_force_pz	1_ground_torque_x	1_ground_torque_y	1_ground_torque_z	2_ground_force_vx	2_ground_force_vy	2_ground_force_vz	2_ground_force_px	2_ground_force_py	2_ground_force_pz	2_ground_torque_x	2_ground_torque_y	2_ground_torque_z
            3.751500	          -19.169735	         1033.779777	          -70.221235	           -0.223080	            0.006351	           -0.434701	           -0.101777	            5.488597	           -0.372822	          -14.132603	          797.028290	           85.067905	           -0.235116	            0.005718	           -0.720967	            0.062362	           -3.516974	           -0.375371
            3.752000	          -19.536395	         1032.698370	          -70.270830	           -0.222996	            0.006351	           -0.434692	           -0.102985	            5.443829	           -0.370430	          -14.407803	          795.370617	           84.874398	           -0.235146	            0.005717	           -0.720849	            0.063658	           -3.514212	           -0.375003
            3.752500	          -19.169031	         1031.796295	          -70.092181	           -0.222943	            0.006350	           -0.434552	           -0.103920	            5.593600	           -0.379986	          -14.545194	          794.450684	           84.495748	           -0.234941	            0.005718	           -0.720741	            0.063873	           -3.488719	           -0.371051
            3.753000	          -19.536064	         1029.634094	          -70.375675	           -0.222922	            0.006351	           -0.434631	           -0.104418	            5.503273	           -0.376150	          -14.913491	          792.608974	           84.160847	           -0.234967	            0.005717	           -0.720571	            0.066254	           -3.521220	           -0.373890
            3.753500	          -19.488950	         1027.649638	          -70.017444	           -0.222851	            0.006351	           -0.434650	           -0.103086	            5.435730	           -0.370356	          -14.912594	          792.244207	           83.174035	           -0.234827	            0.005718	           -0.720660	            0.066928	           -3.555603	           -0.373286
            3.754000	          -19.717264	         1025.845893	          -69.795329	           -0.222780	            0.006351	           -0.434662	           -0.101495	            5.280538	           -0.359271	          -15.095382	          790.954819	           83.075660	           -0.234688	            0.005718	           -0.720617	            0.067769	           -3.550913	           -0.372960
            3.754500	          -19.533467	         1024.764002	          -69.708702	           -0.222732	            0.006351	           -0.434644	           -0.098421	            5.163372	           -0.351234	          -14.906215	          790.404854	           82.557407	           -0.234453	            0.005719	           -0.720634	            0.067171	           -3.561735	           -0.372021
            3.755000	          -19.853307	         1022.059003	          -69.490225	           -0.222682	            0.006351	           -0.434799	           -0.100171	            5.156866	           -0.350617	          -15.411012	          787.457289	           82.359401	           -0.234322	            0.005719	           -0.720376	            0.068846	           -3.517815	           -0.367925
            3.755500	          -19.623321	         1019.714973	          -69.363271	           -0.222568	            0.006352	           -0.434875	           -0.100582	            5.226713	           -0.355533	          -15.498251	          785.617051	           81.930510	           -0.234420	            0.005718	           -0.720324	            0.070056	           -3.551212	           -0.370349
            3.756000	          -19.714256	         1018.091869	          -69.186576	           -0.222499	            0.006351	           -0.434749	           -0.101237	            5.228099	           -0.355286	          -15.958898	          783.406553	           81.641256	           -0.234294	            0.005718	           -0.720268	            0.070454	           -3.458497	           -0.360421
            3.756500	          -19.667744	         1016.288570	          -69.056863	           -0.222408	            0.006352	           -0.434951	           -0.100265	            5.180971	           -0.352047	          -16.237606	          782.671151	           81.028689	           -0.234376	            0.005718	           -0.720352	            0.071025	           -3.423467	           -0.354426
            3.757000	          -19.666810	         1013.043260	          -68.933204	           -0.222305	            0.006352	           -0.434945	           -0.098671	            5.082575	           -0.345847	          -16.138192	          781.016338	           80.412663	           -0.234163	            0.005719	           -0.720328	            0.071170	           -3.444313	           -0.354623
